:SAMPLES-PER-SECOND 30
:FULLY-SPECIFIED
:DEGREES
512
root  42.7373 37.6088 -1.20843 -102.09 -86.0292 97.1229
RightUpLeg  19.2911 -5.11123 -8.00589
RightLeg  17.4369 5.76297 1.41228
RightFoot  -22.3342 0.589625 7.67671
RightToes  -1.74624e-010 0 -3.6325e-017
Spine  3.14709 1.68716 2.53667
Spine1  6.7235 3.51621 -7.18608
HEad  6.83773 -17.8043 -3.70146
LeftShoulder1  -0.693416 5.18951 -34.9487
LeftArm  -2.39712 15.8951 -37.6434
LeftForeArm  33.6487 -10.9596 -7.81872
LeftHand  -0.0906386 8.79921 -1.37026
RightShoulder  -1.19187 -6.59302 32.042
RightArm  19.106 2.89277 47.4244
RightForeArm  19.7269 7.16394 9.09932
RightHand  -0.067102 4.01687 -1.1195
LeftUpLeg  -19.8508 4.35802 -5.14567
LeftLeg  15.7014 3.36516 1.11581
LeftFoot  7.90762 -1.12525 6.34187
LeftToes  2.27646e-009 -8.13696e-011 -1.44715e-011
513
root  41.5372 37.5417 -0.939827 -96.6148 -84.9842 91.3716
RightUpLeg  18.2122 -2.32813 -8.79808
RightLeg  23.5758 3.74427 1.63407
RightFoot  -20.6472 0.906801 13.0449
RightToes  -1.74624e-010 0 -3.6325e-017
Spine  3.3693 1.74263 0.7776
Spine1  6.97266 3.47214 -7.64095
HEad  7.25795 -17.6304 -3.56793
LeftShoulder1  -0.707244 5.22141 -34.9808
LeftArm  -4.05059 15.048 -37.47
LeftForeArm  34.5365 -9.54639 -7.87951
LeftHand  -0.0782954 9.07827 -0.853091
RightShoulder  -1.22265 -6.66343 32.1621
RightArm  16.6307 0.115782 47.3485
RightForeArm  22.4445 4.05858 8.66099
RightHand  -0.0924613 3.16276 -1.48662
LeftUpLeg  -19.5156 4.317 -6.92914
LeftLeg  19.4504 3.35304 1.6789
LeftFoot  5.05348 -1.12235 7.56096
LeftToes  2.27646e-009 -8.13696e-011 -1.44715e-011
514
root  40.4806 37.6064 -0.625988 -104.495 -84.241 99.0806
RightUpLeg  14.6255 -0.539035 -10.0008
RightLeg  32.5451 3.64379 2.25494
RightFoot  -15.2739 0.50392 18.0083
RightToes  -1.74624e-010 0 -3.6325e-017
Spine  4.11168 2.08589 0.66344
Spine1  6.90411 3.92656 -9.26567
HEad  7.27431 -17.3594 -3.74867
LeftShoulder1  -0.623395 5.0322 -34.6175
LeftArm  -3.99314 14.2298 -37.6276
LeftForeArm  33.967 -9.36231 -7.96919
LeftHand  -0.0921225 9.65598 -1.01854
RightShoulder  -1.19602 -6.59205 32.1833
RightArm  15.7998 -2.54496 47.0096
RightForeArm  23.3609 2.87406 8.28854
RightHand  -0.0399593 3.23951 -0.769622
LeftUpLeg  -18.3073 4.99378 -7.93966
LeftLeg  21.0927 3.70584 1.90831
LeftFoot  2.46426 -1.019 8.27073
LeftToes  2.27646e-009 -8.13696e-011 -1.44715e-011
515
root  39.4512 37.7505 -0.373433 -112.664 -83.1651 107.279
RightUpLeg  8.70135 1.92712 -11.0531
RightLeg  43.4806 3.05648 2.81545
RightFoot  -5.58729 -0.816472 17.4523
RightToes  -1.74624e-010 0 -3.6325e-017
Spine  4.7491 2.18236 -0.67314
Spine1  6.54639 3.87543 -9.52824
HEad  6.36088 -16.9461 -4.14952
LeftShoulder1  -0.635313 5.07016 -34.3864
LeftArm  -3.57658 13.8712 -37.83
LeftForeArm  33.1935 -10.494 -7.7021
LeftHand  -0.0973931 9.88663 -1.07377
RightShoulder  -1.12013 -6.42288 31.8218
RightArm  15.8424 -4.27842 47.0168
RightForeArm  25.3303 2.90846 8.25408
RightHand  -0.00691793 2.62321 -0.315092
LeftUpLeg  -16.6447 6.23612 -8.96139
LeftLeg  21.3307 3.79139 1.86616
LeftFoot  0.502883 -0.887893 8.5083
LeftToes  2.27646e-009 -8.13696e-011 -1.44715e-011
516
root  38.459 37.88 -0.141235 -115.987 -82.2809 110.674
RightUpLeg  2.22695 3.80622 -11.7771
RightLeg  53.2119 2.71077 3.5129
RightFoot  4.59593 -1.67603 11.8046
RightToes  -1.74624e-010 0 -3.6325e-017
Spine  5.19433 1.91775 -2.59468
Spine1  6.18009 3.24923 -8.7432
HEad  5.78515 -15.6495 -4.77998
LeftShoulder1  -0.617546 5.02798 -34.3454
LeftArm  -1.51928 13.3431 -37.6547
LeftForeArm  30.8975 -12.0692 -7.59552
LeftHand  -0.0703779 8.41978 -0.874821
RightShoulder  -1.07419 -6.31741 31.6172
RightArm  17.4188 -5.29865 46.4669
RightForeArm  25.5628 4.37729 8.76377
RightHand  -0.012342 2.17617 -0.379494
LeftUpLeg  -14.8822 6.31343 -9.72298
LeftLeg  21.1686 4.70056 1.92897
LeftFoot  -1.27972 -0.733921 8.40547
LeftToes  2.27646e-009 -8.13696e-011 -1.44715e-011
517
root  37.5291 37.9874 0.041676 -118.043 -81.9205 112.547
RightUpLeg  -2.66202 4.94578 -11.998
RightLeg  59.2442 2.63327 4.32031
RightFoot  3.6418 -1.43875 11.1032
RightToes  -1.74624e-010 0 -3.6325e-017
Spine  5.45012 1.46343 -4.36715
Spine1  6.67745 2.36679 -7.71278
HEad  4.98873 -14.1971 -5.06731
LeftShoulder1  -0.628485 5.05049 -34.4569
LeftArm  1.3173 11.7168 -37.2881
LeftForeArm  28.2409 -13.412 -7.5831
LeftHand  -0.0493935 7.50974 -0.395081
RightShoulder  -1.07261 -6.34082 31.2517
RightArm  18.902 -5.77053 46.1667
RightForeArm  24.2454 6.99563 8.90956
RightHand  0.0182713 3.1058 0.0232861
LeftUpLeg  -12.9636 6.66505 -9.85472
LeftLeg  21.0745 4.92457 1.49159
LeftFoot  -3.04867 -0.578395 8.21934
LeftToes  2.27646e-009 -8.13696e-011 -1.44715e-011
518
root  36.608 38.1509 0.235762 -117.35 -82.1997 111.624
RightUpLeg  -6.91519 5.16708 -11.8487
RightLeg  61.8446 2.7778 5.10088
RightFoot  1.8537 -1.26533 11.0152
RightToes  -1.74624e-010 0 -3.6325e-017
Spine  6.19597 0.718328 -5.51732
Spine1  6.12688 1.23581 -6.73503
HEad  4.69433 -12.9343 -4.55874
LeftShoulder1  -0.564341 4.90887 -34.0062
LeftArm  3.02664 10.4177 -37.3878
LeftForeArm  26.6519 -14.7198 -7.19335
LeftHand  -0.0330198 6.72228 0.240197
RightShoulder  -1.11646 -6.44948 31.3565
RightArm  20.9526 -6.20536 45.6126
RightForeArm  21.4802 9.70561 8.59499
RightHand  0.0183905 3.53654 -0.00714166
LeftUpLeg  -10.6636 5.99077 -9.66757
LeftLeg  20.2816 5.55174 1.18303
LeftFoot  -4.34291 -0.469473 8.09085
LeftToes  2.27646e-009 -8.13696e-011 -1.44715e-011
519
root  35.6838 38.3021 0.395648 -118.602 -82.5148 112.769
RightUpLeg  -10.8633 5.66403 -11.144
RightLeg  61.6819 2.54885 4.62766
RightFoot  1.09479 -1.06816 9.84858
RightToes  -1.74624e-010 0 -3.6325e-017
Spine  6.55118 0.263475 -6.57626
Spine1  5.83002 0.378514 -5.35619
HEad  5.10582 -11.4405 -4.38131
LeftShoulder1  -0.488466 4.72563 -33.8162
LeftArm  2.80681 8.64709 -37.6903
LeftForeArm  26.8281 -15.2861 -6.837
LeftHand  -0.0313282 7.3864 0.479125
RightShoulder  -1.07488 -6.37616 30.8744
RightArm  22.4555 -6.63947 45.71
RightForeArm  18.0331 12.11 7.86578
RightHand  0.0376248 3.18266 0.275731
LeftUpLeg  -8.47057 5.45744 -9.28332
LeftLeg  19.4216 6.25046 0.854167
LeftFoot  -5.60014 -0.36975 8.03915
LeftToes  2.27646e-009 -8.13696e-011 -1.44715e-011
520
root  34.7434 38.4772 0.553046 -120.405 -82.9705 114.575
RightUpLeg  -13.9859 6.24275 -10.1958
RightLeg  58.3326 2.41045 3.76768
RightFoot  -0.309667 -0.844654 8.70071
RightToes  -1.74624e-010 0 -3.6325e-017
Spine  6.5324 -0.088689 -7.36292
Spine1  5.73259 -0.301463 -3.75371
HEad  4.94646 -10.8484 -4.26922
LeftShoulder1  -0.438385 4.60812 -33.5504
LeftArm  2.12713 6.50961 -38.1803
LeftForeArm  26.6057 -15.5197 -6.61531
LeftHand  -0.0271426 7.6686 0.704988
RightShoulder  -1.05067 -6.3387 30.5146
RightArm  24.0465 -6.78649 45.7388
RightForeArm  14.0932 14.2558 7.12937
RightHand  -0.000942387 3.96323 -0.274576
LeftUpLeg  -6.09012 5.16905 -8.74042
LeftLeg  18.018 6.61977 0.367964
LeftFoot  -6.58064 -0.299318 8.13524
LeftToes  2.27646e-009 -8.13696e-011 -1.44715e-011
521
root  33.8062 38.577 0.711206 -121.906 -83.3075 116.031
RightUpLeg  -16.1705 6.6091 -9.40601
RightLeg  52.4532 2.48231 3.10042
RightFoot  -2.40987 -0.629593 7.84587
RightToes  -1.74624e-010 0 -3.6325e-017
Spine  6.66284 -0.521426 -7.91764
Spine1  5.53964 -0.955903 -2.59147
HEad  4.89099 -10.0187 -3.91437
LeftShoulder1  -0.496611 4.75319 -33.5944
LeftArm  2.41732 4.22177 -38.2103
LeftForeArm  26.0974 -15.9375 -6.43443
LeftHand  -0.0255532 7.09472 0.813452
RightShoulder  -1.0477 -6.36393 30.087
RightArm  25.3276 -6.44957 46.2245
RightForeArm  11.8823 15.9721 6.47539
RightHand  -0.0507264 4.36333 -0.891945
LeftUpLeg  -3.8976 5.04302 -8.48147
LeftLeg  16.9854 6.76265 0.114433
LeftFoot  -7.72978 -0.209263 8.1179
LeftToes  2.27646e-009 -8.13696e-011 -1.44715e-011
522
root  32.8754 38.6545 0.864375 -123.878 -83.6094 117.875
RightUpLeg  -17.3341 6.58134 -8.52562
RightLeg  44.2618 2.41 2.22336
RightFoot  -3.0549 -0.533065 7.07178
RightToes  -1.74624e-010 0 -3.6325e-017
Spine  7.08311 -0.78634 -8.04433
Spine1  4.96137 -1.33713 -1.65223
HEad  4.5284 -10.183 -3.84922
LeftShoulder1  -0.429971 4.59595 -33.2235
LeftArm  2.75343 2.27117 -38.5162
LeftForeArm  25.1546 -16.4447 -6.22186
LeftHand  -0.0274989 6.84619 0.71734
RightShoulder  -1.05154 -6.3825 29.9855
RightArm  25.9495 -6.03154 46.443
RightForeArm  10.3821 17.1761 5.98044
RightHand  -0.0711672 4.12575 -1.1396
LeftUpLeg  -1.58705 5.20487 -8.24739
LeftLeg  15.8554 6.79375 -0.0902754
LeftFoot  -8.90619 -0.120352 8.12582
LeftToes  2.27646e-009 -8.13696e-011 -1.44715e-011
